<svg width="1200" height="900" viewBox="0 0 1200 900" fill="none" xmlns="http://www.w3.org/2000/svg">
  <rect width="1200" height="900" fill="#FFF6EE"/>
  <circle cx="220" cy="170" r="180" fill="#FFD7BF"/>
  <circle cx="980" cy="190" r="150" fill="#FFE3C7"/>
  <circle cx="1010" cy="700" r="220" fill="#FFD1A6"/>
  <path d="M50 620C160 520 270 560 390 510C530 450 580 340 750 340C860 340 930 390 1010 430C1090 470 1150 470 1200 430V900H0V690C20 675 35 650 50 620Z" fill="#121212"/>
  <path d="M90 640C200 550 310 590 430 540C570 480 620 370 790 370C900 370 970 420 1050 460C1115 493 1160 500 1200 485" stroke="#FF7A2D" stroke-width="14" stroke-linecap="round"/>
  <rect x="140" y="140" width="360" height="220" rx="28" fill="#FFFFFF" stroke="#F5C4A7" stroke-width="4"/>
  <rect x="170" y="174" width="190" height="18" rx="9" fill="#1A1A1A"/>
  <rect x="170" y="208" width="290" height="14" rx="7" fill="#F2F2F2"/>
  <rect x="170" y="234" width="250" height="14" rx="7" fill="#F2F2F2"/>
  <rect x="170" y="260" width="210" height="14" rx="7" fill="#F2F2F2"/>
  <circle cx="880" cy="240" r="85" fill="#FFFFFF" stroke="#F5C4A7" stroke-width="4"/>
  <path d="M845 250L870 220L910 265L930 240" stroke="#FF7A2D" stroke-width="10" stroke-linecap="round" stroke-linejoin="round"/>
</svg>
